<svg width="481.54999999999995px" height="249.43999633789062px" xmlns="http://www.w3.org/2000/svg" viewBox="9.225000000000023 -49.71999816894531 481.54999999999995 249.43999633789062" style="background: rgba(0, 0, 0, 0);" preserveAspectRatio="xMidYMid"><defs><filter id="editing-extrusion" x="-100%" y="-100%" width="300%" height="300%"><feFlood result="color1" flood-color="#092635"></feFlood><feConvolveMatrix order="8,8" divisor="1" kernelMatrix="1 0 0 0 0 0 0 0 0 1 0 0 0 0 0 0 0 0 1 0 0 0 0 0 0 0 0 1 0 0 0 0 0 0 0 0 1 0 0 0 0 0 0 0 0 1 0 0 0 0 0 0 0 0 1 0 0 0 0 0 0 0 0 1" in="SourceAlpha" result="extrude"></feConvolveMatrix><feComposite in="color1" in2="extrude" result="comp-extrude" operator="in"></feComposite><feOffset dx="4" dy="4" in="comp-extrude" result="offset-extrude"></feOffset><feMerge><feMergeNode in="offset-extrude"></feMergeNode><feMergeNode in="SourceGraphic"></feMergeNode></feMerge></filter></defs><g filter="url(#editing-extrusion)"><g transform="translate(80.57501465082169, 136.14000129699707)"><path d="M0.44-20.17L0.44-20.17L0.44-20.17Q0.44-21.15 1.24-21.86L1.24-21.86L1.24-21.86Q2.04-22.57 2.84-23.11L2.84-23.11L2.84-23.11Q3.73-23.64 5.64-24.79L5.64-24.79L5.64-24.79Q7.55-25.95 9.91-27.42L9.91-27.42L9.91-27.42Q12.26-28.88 14.93-30.53L14.93-30.53L14.93-30.53Q17.60-32.17 19.95-33.64L19.95-33.64L19.95-33.64Q22.31-35.10 24.22-36.26L24.22-36.26L24.22-36.26Q26.13-37.41 27.02-38.04L27.02-38.04L27.02-38.04Q28.08-38.75 28.88-39.28L28.88-39.28L28.88-39.28Q29.68-39.81 30.48-40.12L30.48-40.12L30.48-40.12Q31.28-40.43 32.21-40.61L32.21-40.61L32.21-40.61Q33.15-40.79 34.57-40.79L34.57-40.79L34.57-40.79Q34.57-38.57 33.41-37.24L33.41-37.24L33.41-37.24Q32.26-35.90 30.48-34.57L30.48-34.57L30.48-34.57Q29.42-33.86 26.62-32.04L26.62-32.04L26.62-32.04Q23.82-30.21 20.71-28.22L20.71-28.22L20.71-28.22Q17.60-26.22 14.84-24.39L14.84-24.39L14.84-24.39Q12.09-22.57 10.93-21.95L10.93-21.95L10.93-21.95Q9.69-21.24 9.69-20.08L9.69-20.08L9.69-19.82L9.69-19.82Q9.69-19.73 9.78-19.64L9.78-19.64L31.64-16.17L31.64-16.17Q31.64-16.00 31.73-15.82L31.73-15.82L31.73-15.82Q31.73-15.64 31.77-15.51L31.77-15.51L31.77-15.51Q31.81-15.37 31.81-15.29L31.81-15.29L31.81-15.29Q31.81-12.80 29.33-11.55L29.33-11.55L29.33-11.55Q29.06-11.55 28.22-11.55L28.22-11.55L28.22-11.55Q27.37-11.55 26.44-11.51L26.44-11.51L26.44-11.51Q25.50-11.46 24.71-11.46L24.71-11.46L24.71-11.46Q23.91-11.46 23.55-11.46L23.55-11.46L23.55-11.46Q22.39-11.46 20.22-11.60L20.22-11.60L20.22-11.60Q18.04-11.73 15.46-12.13L15.46-12.13L15.46-12.13Q12.89-12.53 10.22-13.15L10.22-13.15L10.22-13.15Q7.55-13.77 5.38-14.75L5.38-14.75L5.38-14.75Q3.20-15.73 1.82-17.06L1.82-17.06L1.82-17.06Q0.44-18.40 0.44-20.17ZM95.53-4.00L95.53-4.00L95.53-4.00Q95.53-6.22 95.84-8.44L95.84-8.44L95.84-8.44Q96.15-10.66 96.55-12.84L96.55-12.84L96.55-12.84Q96.95-15.02 97.27-17.28L97.27-17.28L97.27-17.28Q97.58-19.55 97.58-21.86L97.58-21.86L97.58-21.86Q94.64-21.86 92.51-21.59L92.51-21.59L92.51-21.59Q90.38-21.33 88.33-21.06L88.33-21.06L88.33-21.06Q86.29-20.79 83.98-20.66L83.98-20.66L83.98-20.66Q81.67-20.53 78.38-20.71L78.38-20.71L78.38-20.71Q75.98-18.04 72.92-15.02L72.92-15.02L72.92-15.02Q69.85-12.00 66.38-9.42L66.38-9.42L66.38-9.42Q62.92-6.84 59.10-5.11L59.10-5.11L59.10-5.11Q55.28-3.38 51.37-3.38L51.37-3.38L51.37-3.38Q48.70-3.38 46.26-4.27L46.26-4.27L46.26-4.27Q43.81-5.15 41.95-6.75L41.95-6.75L41.95-6.75Q40.08-8.35 39.01-10.62L39.01-10.62L39.01-10.62Q37.95-12.89 37.95-15.64L37.95-15.64L37.95-15.64Q37.95-17.06 38.44-17.82L38.44-17.82L38.44-17.82Q38.92-18.57 40.52-18.57L40.52-18.57L40.52-18.57Q41.32-18.57 41.95-17.11L41.95-17.11L41.95-17.11Q42.57-15.64 43.59-13.82L43.59-13.82L43.59-13.82Q44.61-12.00 46.21-10.53L46.21-10.53L46.21-10.53Q47.81-9.06 50.57-9.06L50.57-9.06L50.57-9.06Q53.94-9.06 57.19-10.35L57.19-10.35L57.19-10.35Q60.43-11.64 63.41-13.64L63.41-13.64L63.41-13.64Q66.38-15.64 69.01-18.13L69.01-18.13L69.01-18.13Q71.63-20.62 73.76-23.02L73.76-23.02L73.76-23.02Q73.49-25.24 72.16-26.30L72.16-26.30L72.16-26.30Q70.83-27.37 69.36-28.44L69.36-28.44L69.36-28.44Q67.89-29.50 66.74-31.28L66.74-31.28L66.74-31.28Q65.58-33.06 65.58-36.88L65.58-36.88L65.58-36.88Q65.58-42.30 68.87-45.37L68.87-45.37L68.87-45.37Q72.16-48.43 77.85-48.43L77.85-48.43L77.85-48.43Q79.54-48.43 81.18-48.08L81.18-48.08L81.18-48.08Q82.82-47.72 84.51-47.23L84.51-47.23L84.51-47.23Q86.20-46.74 87.85-46.39L87.85-46.39L87.85-46.39Q89.49-46.03 91.18-46.03L91.18-46.03L91.18-46.03Q92.24-46.03 92.91-46.30L92.91-46.30L92.91-46.30Q93.58-46.57 94.11-47.10L94.11-47.10L94.11-47.10Q94.64-47.63 95.27-48.52L95.27-48.52L95.27-48.52Q95.89-49.41 96.87-50.65L96.87-50.65L96.87-50.65Q97.40-51.37 98.51-52.92L98.51-52.92L98.51-52.92Q99.62-54.48 100.95-56.39L100.95-56.39L100.95-56.39Q102.29-58.30 103.80-60.43L103.80-60.43L103.80-60.43Q105.31-62.56 106.64-64.52L106.64-64.52L106.64-64.52Q107.97-66.47 109.04-67.98L109.04-67.98L109.04-67.98Q110.11-69.49 110.55-70.29L110.55-70.29L110.55-70.29Q111.53-71.09 112.33-71.32L112.33-71.32L112.33-71.32Q113.13-71.54 114.19-71.54L114.19-71.54L114.19-71.54Q115.26-71.54 115.79-70.78L115.79-70.78L115.79-70.78Q116.33-70.03 116.46-68.96L116.46-68.96L116.46-68.96Q116.59-67.89 116.55-66.78L116.55-66.78L116.55-66.78Q116.50-65.67 116.50-65.05L116.50-65.05L116.50-65.05Q116.50-64.78 116.50-64.21L116.50-64.21L116.50-64.21Q116.50-63.63 116.46-63.01L116.46-63.01L116.46-63.01Q116.42-62.38 116.42-61.81L116.42-61.81L116.42-61.81Q116.42-61.23 116.42-61.05L116.42-61.05L116.42-61.05Q116.15-60.16 115.57-58.39L115.57-58.39L115.57-58.39Q114.99-56.61 114.28-54.34L114.28-54.34L114.28-54.34Q113.57-52.08 112.82-49.59L112.82-49.59L112.82-49.59Q112.06-47.10 111.40-44.79L111.40-44.79L111.40-44.79Q110.73-42.48 110.20-40.70L110.20-40.70L110.20-40.70Q109.66-38.92 109.48-38.04L109.48-38.04L109.48-38.04Q109.40-37.59 109.22-36.61L109.22-36.61L109.22-36.61Q109.04-35.64 108.86-34.52L108.86-34.52L108.86-34.52Q108.68-33.41 108.51-32.44L108.51-32.44L108.51-32.44Q108.33-31.46 108.33-31.10L108.33-31.10L108.33-31.10Q109.13-30.93 109.93-30.57L109.93-30.57L109.93-30.57Q110.73-30.21 110.73-29.42L110.73-29.42L110.73-29.42Q110.73-28.53 110.06-27.99L110.06-27.99L110.06-27.99Q109.40-27.46 108.51-27.02L108.51-27.02L108.51-27.02Q107.62-26.57 106.86-25.95L106.86-25.95L106.86-25.95Q106.11-25.33 106.02-24.17L106.02-24.17L106.02-24.17Q105.84-23.11 105.40-20.31L105.40-20.31L105.40-20.31Q104.95-17.51 104.37-14.35L104.37-14.35L104.37-14.35Q103.80-11.20 103.31-8.44L103.31-8.44L103.31-8.44Q102.82-5.69 102.55-4.62L102.55-4.62L102.55-4.62Q102.46-4.35 102.20-3.64L102.20-3.64L102.20-3.64Q101.93-2.93 101.58-2.22L101.58-2.22L101.58-2.22Q101.22-1.51 100.86-0.89L100.86-0.89L100.86-0.89Q100.51-0.27 100.33 0L100.33 0L100.33 0Q98.20-0.44 96.87-1.11L96.87-1.11L96.87-1.11Q95.53-1.78 95.53-4.00ZM94.02-38.12L94.02-38.12L94.02-38.12Q92.96-38.12 91.04-36.61L91.04-36.61L91.04-36.61Q89.13-35.10 87.27-33.10L87.27-33.10L87.27-33.10Q85.40-31.10 83.98-29.10L83.98-29.10L83.98-29.10Q82.56-27.10 82.56-26.13L82.56-26.13L82.56-26.13Q83.09-26.13 84.65-26.17L84.65-26.17L84.65-26.17Q86.20-26.22 87.93-26.26L87.93-26.26L87.93-26.26Q89.67-26.30 91.22-26.39L91.22-26.39L91.22-26.39Q92.78-26.48 93.40-26.48L93.40-26.48L93.40-26.48Q93.75-26.48 94.51-26.66L94.51-26.66L94.51-26.66Q95.27-26.84 95.98-27.02L95.98-27.02L95.98-27.02Q96.69-27.19 97.27-27.37L97.27-27.37L97.27-27.37Q97.84-27.55 97.93-27.64L97.93-27.64L97.93-27.64Q98.02-27.64 98.02-28.22L98.02-28.22L98.02-28.22Q98.02-28.79 98.02-29.15L98.02-29.15L98.02-29.15Q98.02-29.86 97.80-31.37L97.80-31.37L97.80-31.37Q97.58-32.88 97.09-34.39L97.09-34.39L97.09-34.39Q96.60-35.90 95.84-37.01L95.84-37.01L95.84-37.01Q95.09-38.12 94.02-38.12ZM69.05-38.04L69.05-38.04L69.05-38.04Q69.05-36.79 69.94-35.19L69.94-35.19L69.94-35.19Q70.83-33.59 72.16-32.17L72.16-32.17L72.16-32.17Q73.49-30.75 75.00-29.77L75.00-29.77L75.00-29.77Q76.51-28.79 77.85-28.79L77.85-28.79L77.85-28.79Q79.09-28.79 80.78-30.30L80.78-30.30L80.78-30.30Q82.47-31.81 84.02-33.81L84.02-33.81L84.02-33.81Q85.58-35.81 86.65-37.68L86.65-37.68L86.65-37.68Q87.71-39.55 87.71-40.26L87.71-40.26L87.71-40.26Q87.71-41.77 86.69-42.52L86.69-42.52L86.69-42.52Q85.67-43.28 84.29-43.59L84.29-43.59L84.29-43.59Q82.91-43.90 81.40-43.90L81.40-43.90L81.40-43.90Q79.89-43.90 78.91-43.90L78.91-43.90L78.91-43.90Q77.67-43.90 75.94-43.68L75.94-43.68L75.94-43.68Q74.20-43.46 72.69-42.83L72.69-42.83L72.69-42.83Q71.18-42.21 70.12-41.06L70.12-41.06L70.12-41.06Q69.05-39.90 69.05-38.04ZM110.46-60.61L95.71-42.57L95.71-42.57Q97.67-40.26 99.35-37.59L99.35-37.59L99.35-37.59Q101.04-34.92 102.55-32.17L102.55-32.17L110.46-60.61ZM117.13-4.00L117.13-4.00L117.13-4.00Q117.13-4.80 117.13-5.24L117.13-5.24L117.13-5.24Q117.13-5.69 117.26-6.09L117.26-6.09L117.26-6.09Q117.39-6.49 117.66-6.93L117.66-6.93L117.66-6.93Q117.93-7.38 118.37-8.09L118.37-8.09L118.37-8.09Q119.08-9.33 121.04-12.44L121.04-12.44L121.04-12.44Q122.99-15.55 125.21-19.02L125.21-19.02L125.21-19.02Q127.44-22.48 129.44-25.59L129.44-25.59L129.44-25.59Q131.43-28.70 132.23-29.95L132.23-29.95L132.23-29.95Q132.32-30.04 132.72-30.04L132.72-30.04L132.72-30.04Q133.12-30.04 133.30-30.04L133.30-30.04L133.30-30.04Q133.48-30.04 133.92-30.04L133.92-30.04L133.92-30.04Q134.37-30.04 134.46-29.95L134.46-29.95L134.46-29.95Q134.54-29.86 134.86-29.50L134.86-29.50L134.86-29.50Q135.17-29.15 135.57-28.75L135.57-28.75L135.57-28.75Q135.97-28.35 136.28-27.99L136.28-27.99L136.28-27.99Q136.59-27.64 136.77-27.64L136.77-27.64L136.77-27.64Q137.57-27.64 138.46-28.17L138.46-28.17L138.46-28.17Q139.34-28.70 140.28-29.37L140.28-29.37L140.28-29.37Q141.21-30.04 142.19-30.57L142.19-30.57L142.19-30.57Q143.17-31.10 144.23-31.10L144.23-31.10L144.23-31.10Q145.39-31.10 146.36-30.57L146.36-30.57L146.36-30.57Q147.34-30.04 148.05-29.24L148.05-29.24L148.05-29.24Q148.76-28.44 149.16-27.46L149.16-27.46L149.16-27.46Q149.56-26.48 149.56-25.50L149.56-25.50L149.56-25.50Q149.56-23.46 148.99-21.59L148.99-21.59L148.99-21.59Q148.41-19.73 147.70-17.91L147.70-17.91L147.70-17.91Q146.99-16.08 146.41-14.26L146.41-14.26L146.41-14.26Q145.83-12.44 145.83-10.49L145.83-10.49L145.83-10.49Q145.83-8.53 146.28-7.69L146.28-7.69L146.28-7.69Q146.72-6.84 148.76-6.84L148.76-6.84L148.76-6.84Q151.16-6.84 153.34-7.55L153.34-7.55L153.34-7.55Q155.52-8.26 157.83-8.26L157.83-8.26L157.83-8.26Q157.83-6.13 156.54-4.71L156.54-4.71L156.54-4.71Q155.25-3.29 153.34-2.44L153.34-2.44L153.34-2.44Q151.43-1.60 149.25-1.29L149.25-1.29L149.25-1.29Q147.08-0.98 145.30-0.98L145.30-0.98L145.30-0.98Q141.92-0.98 140.37-2.89L140.37-2.89L140.37-2.89Q138.81-4.80 138.81-8.00L138.81-8.00L138.81-8.00Q138.81-10.13 139.57-12.00L139.57-12.00L139.57-12.00Q140.32-13.86 141.25-15.64L141.25-15.64L141.25-15.64Q142.19-17.42 142.99-19.20L142.99-19.20L142.99-19.20Q143.79-20.97 143.79-23.02L143.79-23.02L143.79-23.02Q143.79-23.55 143.61-24.44L143.61-24.44L143.61-24.44Q143.43-25.33 142.45-25.33L142.45-25.33L142.45-25.33Q139.52-25.33 137.17-23.46L137.17-23.46L137.17-23.46Q134.81-21.59 132.90-18.75L132.90-18.75L132.90-18.75Q130.99-15.91 129.44-12.62L129.44-12.62L129.44-12.62Q127.88-9.33 126.50-6.49L126.50-6.49L126.50-6.49Q125.13-3.64 123.88-1.78L123.88-1.78L123.88-1.78Q122.64 0.09 121.30 0.09L121.30 0.09L121.30 0.09Q119.44 0.09 118.28-1.07L118.28-1.07L118.28-1.07Q117.13-2.22 117.13-4.00ZM156.05-4.44L156.05-4.44L156.05-4.44Q156.05-5.78 156.85-8.22L156.85-8.22L156.85-8.22Q157.65-10.66 158.94-13.51L158.94-13.51L158.94-13.51Q160.23-16.35 161.87-19.28L161.87-19.28L161.87-19.28Q163.52-22.22 165.20-24.62L165.20-24.62L165.20-24.62Q166.89-27.02 168.40-28.53L168.40-28.53L168.40-28.53Q169.91-30.04 171.07-30.04L171.07-30.04L171.07-30.04Q173.56-30.04 173.56-27.64L173.56-27.64L173.56-27.64Q173.56-26.57 173.16-25.86L173.16-25.86L173.16-25.86Q172.76-25.15 172.22-24.53L172.22-24.53L172.22-24.53Q171.69-23.91 171.07-23.33L171.07-23.33L171.07-23.33Q170.45-22.75 170.00-21.95L170.00-21.95L170.00-21.95Q169.20-20.62 168.05-18.31L168.05-18.31L168.05-18.31Q166.89-16.00 165.78-13.82L165.78-13.82L165.78-13.82Q164.67-11.64 163.87-9.95L163.87-9.95L163.87-9.95Q163.07-8.26 163.07-8.09L163.07-8.09L163.07-6.93L163.07-6.93Q166.54-7.55 169.74-9.91L169.74-9.91L169.74-9.91Q172.94-12.26 175.82-15.46L175.82-15.46L175.82-15.46Q178.71-18.66 181.33-22.17L181.33-22.17L181.33-22.17Q183.96-25.68 186.27-28.66L186.27-28.66L186.27-28.66Q188.58-31.64 190.62-33.59L190.62-33.59L190.62-33.59Q192.66-35.55 194.44-35.55L194.44-35.55L194.44-35.55Q194.44-32.26 193.11-29.59L193.11-29.59L193.11-29.59Q191.78-26.93 190.22-24.35L190.22-24.35L190.22-24.35Q188.67-21.77 187.33-19.06L187.33-19.06L187.33-19.06Q186.00-16.35 186.00-12.97L186.00-12.97L186.00-12.97Q186.00-11.55 187.73-10.44L187.73-10.44L187.73-10.44Q189.46-9.33 191.73-8.58L191.73-8.58L191.73-8.58Q194.00-7.82 196.13-7.38L196.13-7.38L196.13-7.38Q198.26-6.93 199.06-6.84L199.06-6.84L199.06-4.53L199.06-4.53Q197.02-4.44 194.00-4.49L194.00-4.49L194.00-4.49Q190.98-4.53 187.95-5.15L187.95-5.15L187.95-5.15Q184.93-5.78 182.49-7.24L182.49-7.24L182.49-7.24Q180.04-8.71 179.25-11.55L179.25-11.55L179.25-11.55Q176.93-10.04 174.80-8.00L174.80-8.00L174.80-8.00Q172.67-5.95 170.40-4.18L170.40-4.18L170.40-4.18Q168.14-2.40 165.65-1.16L165.65-1.16L165.65-1.16Q163.16 0.09 160.23 0.09L160.23 0.09L160.23 0.09Q158.45 0.09 157.25-1.42L157.25-1.42L157.25-1.42Q156.05-2.93 156.05-4.44ZM165.92 40.43L165.92 40.43L165.92 40.43Q165.92 36.70 167.16 33.33L167.16 33.33L167.16 33.33Q168.40 29.95 170.36 26.93L170.36 26.93L170.36 26.93Q172.31 23.91 174.80 21.19L174.80 21.19L174.80 21.19Q177.29 18.48 179.78 16.08L179.78 16.08L179.78 16.08Q180.67 15.20 182.62 13.46L182.62 13.46L182.62 13.46Q184.58 11.73 187.07 9.55L187.07 9.55L187.07 9.55Q189.55 7.38 192.31 5.02L192.31 5.02L192.31 5.02Q195.06 2.67 197.60 0.53L197.60 0.53L197.60 0.53Q200.13-1.60 202.13-3.29L202.13-3.29L202.13-3.29Q204.13-4.98 205.11-5.78L205.11-5.78L205.11-5.78Q205.37-6.67 206.08-8.44L206.08-8.44L206.08-8.44Q206.79-10.22 207.73-12.53L207.73-12.53L207.73-12.53Q208.66-14.84 209.64-17.33L209.64-17.33L209.64-17.33Q210.62-19.82 211.55-22.08L211.55-22.08L211.55-22.08Q212.48-24.35 213.24-26.13L213.24-26.13L213.24-26.13Q213.99-27.90 214.35-28.79L214.35-28.79L214.35-28.79Q214.79-29.86 215.46-31.06L215.46-31.06L215.46-31.06Q216.13-32.26 216.97-33.33L216.97-33.33L216.97-33.33Q217.81-34.39 218.92-35.10L218.92-35.10L218.92-35.10Q220.04-35.81 221.37-35.81L221.37-35.81L221.37-35.81Q221.37-32.97 220.44-29.50L220.44-29.50L220.44-29.50Q219.50-26.04 218.17-22.66L218.17-22.66L218.17-22.66Q216.84-19.28 215.46-16.35L215.46-16.35L215.46-16.35Q214.08-13.42 213.19-11.55L213.19-11.55L213.19-11.55Q213.37-11.55 213.77-11.51L213.77-11.51L213.77-11.51Q214.17-11.46 214.35-11.46L214.35-11.46L214.35-11.46Q216.66-11.46 218.75-12.09L218.75-12.09L218.75-12.09Q220.83-12.71 223.15-12.71L223.15-12.71L223.15-12.71Q223.86-12.71 224.70-12.62L224.70-12.62L224.70-12.62Q225.54-12.53 225.81-11.55L225.81-11.55L225.81-11.55Q224.83-9.60 222.79-8.80L222.79-8.80L222.79-8.80Q220.75-8.00 218.39-7.46L218.39-7.46L218.39-7.46Q216.04-6.93 213.95-6.13L213.95-6.13L213.95-6.13Q211.86-5.33 210.97-3.47L210.97-3.47L210.97-3.47Q210.44-2.40 209.33-0.13L209.33-0.13L209.33-0.13Q208.22 2.13 206.84 4.93L206.84 4.93L206.84 4.93Q205.46 7.73 203.91 10.89L203.91 10.89L203.91 10.89Q202.35 14.04 201.02 16.88L201.02 16.88L201.02 16.88Q199.68 19.73 198.62 22.04L198.62 22.04L198.62 22.04Q197.55 24.35 197.11 25.42L197.11 25.42L197.11 25.42Q195.60 28.62 193.86 32.97L193.86 32.97L193.86 32.97Q192.13 37.32 189.69 41.28L189.69 41.28L189.69 41.28Q187.24 45.23 183.87 47.99L183.87 47.99L183.87 47.99Q180.49 50.74 175.78 50.74L175.78 50.74L175.78 50.74Q173.56 50.74 171.74 49.90L171.74 49.90L171.74 49.90Q169.91 49.05 168.63 47.63L168.63 47.63L168.63 47.63Q167.34 46.21 166.63 44.34L166.63 44.34L166.63 44.34Q165.92 42.48 165.92 40.43ZM170.45 39.01L170.45 39.01L170.45 39.01Q170.45 40.35 170.58 41.59L170.58 41.59L170.58 41.59Q170.71 42.83 171.20 43.86L171.20 43.86L171.20 43.86Q171.69 44.88 172.62 45.50L172.62 45.50L172.62 45.50Q173.56 46.12 175.25 46.12L175.25 46.12L175.25 46.12Q178.53 46.12 181.47 43.77L181.47 43.77L181.47 43.77Q184.40 41.41 186.75 38.17L186.75 38.17L186.75 38.17Q189.11 34.92 190.89 31.37L190.89 31.37L190.89 31.37Q192.66 27.82 193.64 25.42L193.64 25.42L193.64 25.42Q194.26 23.91 195.06 21.82L195.06 21.82L195.06 21.82Q195.86 19.73 196.75 17.42L196.75 17.42L196.75 17.42Q197.64 15.11 198.53 12.84L198.53 12.84L198.53 12.84Q199.42 10.58 200.08 8.80L200.08 8.80L200.08 8.80Q200.75 7.02 201.20 5.87L201.20 5.87L201.20 5.87Q201.64 4.71 201.64 4.62L201.64 4.62L201.64 2.31L201.64 2.31Q201.46 2.49 200.93 2.80L200.93 2.80L200.93 2.80Q200.40 3.11 199.86 3.47L199.86 3.47L199.86 3.47Q199.33 3.82 198.84 4.13L198.84 4.13L198.84 4.13Q198.35 4.44 198.17 4.62L198.17 4.62L198.17 4.62Q197.46 5.24 195.91 6.71L195.91 6.71L195.91 6.71Q194.35 8.18 192.44 9.95L192.44 9.95L192.44 9.95Q190.53 11.73 188.40 13.73L188.40 13.73L188.40 13.73Q186.27 15.73 184.35 17.55L184.35 17.55L184.35 17.55Q182.44 19.37 180.89 20.84L180.89 20.84L180.89 20.84Q179.33 22.31 178.62 23.02L178.62 23.02L178.62 23.02Q177.38 25.06 175.96 26.84L175.96 26.84L175.96 26.84Q174.54 28.62 173.34 30.48L173.34 30.48L173.34 30.48Q172.14 32.35 171.29 34.39L171.29 34.39L171.29 34.39Q170.45 36.44 170.45 39.01ZM228.12-68.61L228.12-68.61L228.12-68.61Q228.12-69.23 228.57-69.72L228.57-69.72L228.57-69.72Q229.01-70.21 229.68-70.60L229.68-70.60L229.68-70.60Q230.34-71.00 231.05-71.23L231.05-71.23L231.05-71.23Q231.77-71.45 232.21-71.45L232.21-71.45L232.21-71.45Q233.54-71.45 233.81-70.43L233.81-70.43L233.81-70.43Q234.08-69.41 234.08-68.43L234.08-68.43L234.08-68.43Q234.08-66.74 233.14-65.54L233.14-65.54L233.14-65.54Q232.21-64.34 230.43-64.34L230.43-64.34L230.43-64.34Q229.63-64.34 229.14-64.74L229.14-64.74L229.14-64.74Q228.66-65.14 228.43-65.81L228.43-65.81L228.43-65.81Q228.21-66.47 228.17-67.18L228.17-67.18L228.17-67.18Q228.12-67.89 228.12-68.61ZM223.15-5.78L223.15-5.78L223.15-5.78Q223.95-10.84 226.17-15.11L226.17-15.11L226.17-15.11Q228.39-19.37 231.28-22.53L231.28-22.53L231.28-22.53Q234.17-25.68 237.54-27.73L237.54-27.73L237.54-27.73Q240.92-29.77 244.12-30.35L244.12-30.35L244.12-30.35Q247.32-30.93 250.03-30.04L250.03-30.04L250.03-30.04Q252.74-29.15 254.43-26.48L254.43-26.48L254.43-26.48Q254.43-24.44 253.49-22.57L253.49-22.57L253.49-22.57Q252.56-20.71 251.45-18.84L251.45-18.84L251.45-18.84Q250.34-16.97 249.41-15.02L249.41-15.02L249.41-15.02Q248.47-13.06 248.47-10.84L248.47-10.84L248.47-10.84Q248.47-8.53 249.49-7.15L249.49-7.15L249.49-7.15Q250.52-5.78 253.09-5.78L253.09-5.78L253.09-5.78Q255.23-5.78 257.23-6.40L257.23-6.40L257.23-6.40Q259.23-7.02 261.27-7.02L261.27-7.02L261.27-7.02Q261.63-7.02 262.47-6.98L262.47-6.98L262.47-6.98Q263.31-6.93 263.58-6.93L263.58-6.93L263.58-6.93Q262.51-5.42 260.83-4.35L260.83-4.35L260.83-4.35Q259.14-3.29 257.27-2.53L257.27-2.53L257.27-2.53Q255.40-1.78 253.40-1.42L253.40-1.42L253.40-1.42Q251.41-1.07 249.72-1.07L249.72-1.07L249.72-1.07Q248.12-1.07 246.87-1.78L246.87-1.78L246.87-1.78Q245.63-2.49 244.74-3.64L244.74-3.64L244.74-3.64Q243.85-4.80 243.36-6.27L243.36-6.27L243.36-6.27Q242.87-7.73 242.87-9.15L242.87-9.15L242.87-9.15Q241.54-7.64 239.99-6.00L239.99-6.00L239.99-6.00Q238.43-4.35 236.70-3.02L236.70-3.02L236.70-3.02Q234.96-1.69 232.97-0.80L232.97-0.80L232.97-0.80Q230.97 0.09 228.83 0.09L228.83 0.09L228.83 0.09Q226.52 0.09 224.83-1.64L224.83-1.64L224.83-1.64Q223.15-3.38 223.15-5.78ZM229.01-8.53L229.01-8.53L229.01-8.53Q229.01-7.82 229.06-6.93L229.06-6.93L229.06-6.93Q229.10-6.04 230.17-5.78L230.17-5.78L230.17-5.78Q232.39-6.31 235.23-8.13L235.23-8.13L235.23-8.13Q238.08-9.95 240.56-12.40L240.56-12.40L240.56-12.40Q243.05-14.84 244.74-17.64L244.74-17.64L244.74-17.64Q246.43-20.44 246.43-23.02L246.43-23.02L246.43-23.02Q246.43-23.19 246.38-23.59L246.38-23.59L246.38-23.59Q246.34-23.99 246.34-24.17L246.34-24.17L246.34-24.17Q243.32-24.17 240.21-22.93L240.21-22.93L240.21-22.93Q237.10-21.68 234.61-19.51L234.61-19.51L234.61-19.51Q232.12-17.33 230.57-14.49L230.57-14.49L230.57-14.49Q229.01-11.64 229.01-8.53ZM261.54-3.02L261.54-3.02L261.54-3.02Q261.54-4.35 261.85-5.29L261.85-5.29L261.85-5.29Q262.16-6.22 263.94-6.93L263.94-6.93L263.94-6.93Q264.65-8.18 266.16-10.80L266.16-10.80L266.16-10.80Q267.67-13.42 269.58-16.71L269.58-16.71L269.58-16.71Q271.49-20.00 273.62-23.64L273.62-23.64L273.62-23.64Q275.75-27.28 277.71-30.57L277.71-30.57L277.71-30.57Q279.67-33.86 281.22-36.48L281.22-36.48L281.22-36.48Q282.78-39.10 283.58-40.35L283.58-40.35L283.58-40.35Q284.46-41.86 286.06-44.21L286.06-44.21L286.06-44.21Q287.66-46.57 289.53-49.01L289.53-49.01L289.53-49.01Q291.40-51.45 293.44-53.76L293.44-53.76L293.44-53.76Q295.48-56.08 297.35-57.59L297.35-57.59L297.35-57.59Q297.53-57.67 298.06-57.81L298.06-57.81L298.06-57.81Q298.59-57.94 298.77-57.94L298.77-57.94L298.77-57.94Q298.77-56.61 297.57-54.03L297.57-54.03L297.57-54.03Q296.37-51.45 294.51-48.30L294.51-48.30L294.51-48.30Q292.64-45.14 290.33-41.68L290.33-41.68L290.33-41.68Q288.02-38.21 285.80-34.92L285.80-34.92L285.80-34.92Q283.58-31.64 281.75-28.79L281.75-28.79L281.75-28.79Q279.93-25.95 278.95-24.17L278.95-24.17L278.95-24.17Q277.89-22.31 276.33-19.15L276.33-19.15L276.33-19.15Q274.78-16.00 272.91-12.66L272.91-12.66L272.91-12.66Q271.04-9.33 269.05-6.18L269.05-6.18L269.05-6.18Q267.05-3.02 265.09-1.16L265.09-1.16L265.09-1.16Q264.82-0.89 263.94-0.44L263.94-0.44L263.94-0.44Q263.05 0 262.87 0L262.87 0L262.87 0Q262.34 0 262.02-0.40L262.02-0.40L262.02-0.40Q261.71-0.80 261.63-1.29L261.63-1.29L261.63-1.29Q261.54-1.78 261.54-2.27L261.54-2.27L261.54-2.27Q261.54-2.75 261.54-3.02ZM302.59-8.09L302.59-8.09L302.59-8.09Q303.21-9.78 304.86-11.29L304.86-11.29L304.86-11.29Q306.50-12.80 308.77-14.13L308.77-14.13L308.77-14.13Q311.04-15.46 313.70-16.53L313.70-16.53L313.70-16.53Q316.37-17.60 318.94-18.44L318.94-18.44L318.94-18.44Q321.52-19.28 323.88-19.86L323.88-19.86L323.88-19.86Q326.23-20.44 327.83-20.71L327.83-20.71L327.83-20.71Q327.83-20.79 327.88-21.02L327.88-21.02L327.88-21.02Q327.92-21.24 327.92-21.33L327.92-21.33L327.92-21.33Q327.92-22.48 326.59-23.19L326.59-23.19L326.59-23.19Q325.25-23.91 324.45-24.17L324.45-24.17L324.45-24.17Q323.30-24.62 320.37-25.59L320.37-25.59L320.37-25.59Q317.43-26.57 314.10-27.68L314.10-27.68L314.10-27.68Q310.77-28.79 307.84-29.77L307.84-29.77L307.84-29.77Q304.90-30.75 303.75-31.10L303.75-31.10L303.75-31.10Q302.33-32.88 302.46-34.17L302.46-34.17L302.46-34.17Q302.59-35.46 303.66-36.17L303.66-36.17L303.66-36.17Q304.73-36.88 306.37-37.06L306.37-37.06L306.37-37.06Q308.01-37.24 309.66-36.92L309.66-36.92L309.66-36.92Q311.30-36.61 312.55-35.72L312.55-35.72L312.55-35.72Q313.79-34.84 314.15-33.41L314.15-33.41L334.76-25.42L334.76-25.42Q338.41-23.91 338.41-20.79L338.41-20.79L338.41-20.79Q338.41-19.37 337.47-18.66L337.47-18.66L337.47-18.66Q336.54-17.95 335.21-17.68L335.21-17.68L335.21-17.68Q333.87-17.42 332.50-17.37L332.50-17.37L332.50-17.37Q331.12-17.33 330.23-17.33L330.23-17.33L306.06-6.93L306.06-6.93Q305.88-6.93 305.75-6.89L305.75-6.89L305.75-6.89Q305.61-6.84 305.44-6.84L305.44-6.84L305.44-6.84Q304.64-6.84 303.97-7.15L303.97-7.15L303.97-7.15Q303.30-7.46 302.59-8.09Z" fill="#8ea300"></path></g></g><style>text {
  font-size: 64px;
  font-family: Arial Black;
  dominant-baseline: central;
  text-anchor: middle;
}</style></svg>