<?xml version="1.0" encoding="UTF-8"?>
<svg version="1.1" xmlns="http://www.w3.org/2000/svg" width="3000" height="1478">
<path d="M0 0 C467.61 0 935.22 0 1417 0 C1417 467.94 1417 935.88 1417 1418 C949.39 1418 481.78 1418 0 1418 C0 1269.17 0 1120.34 0 967 C12.87 967 25.74 967 39 967 C39 1102.63 39 1238.26 39 1378 C480.87 1378 922.74 1378 1378 1378 C1378 936.46 1378 494.92 1378 40 C936.13 40 494.26 40 39 40 C39 175.63 39 311.26 39 451 C26.13 451 13.26 451 0 451 C0 302.17 0 153.34 0 0 Z " fill="#DDD9D7" transform="translate(1512,31)"/>
<path d="M0 0 C-0.40911634 4.993079 -3.03819638 7.85252338 -6.25 11.4375 C-7.21372776 12.54020197 -8.17727039 13.64306577 -9.140625 14.74609375 C-9.61306641 15.28089355 -10.08550781 15.81569336 -10.57226562 16.36669922 C-12.76245736 18.87223662 -14.87991458 21.43500615 -17 24 C-16.13761719 24.38929688 -15.27523438 24.77859375 -14.38671875 25.1796875 C12.27396727 37.33933511 42.07165261 51.6066077 53.4375 80.6875 C57.38833693 93.80019154 55.50576887 107.42579131 49.375 119.5 C45.88741064 125.54515488 41.6333758 130.7991134 37 136 C36.33484375 136.74894531 35.6696875 137.49789062 34.984375 138.26953125 C12.89635978 161.66428019 -20.16713601 177.154796 -50 188 C-45.72651267 193.81669109 -41.25756208 199.45727098 -36.73950195 205.08398438 C-33.28197047 209.39197204 -29.84682813 213.71626664 -26.4375 218.0625 C-25.98947021 218.63347412 -25.54144043 219.20444824 -25.07983398 219.79272461 C-23.2507283 222.12525387 -21.42310379 224.45893375 -19.59716797 226.79394531 C-14.19312741 233.70439718 -8.75901895 240.58091473 -3.1796875 247.3515625 C-1.69769063 249.15226837 -0.22401206 250.95984571 1.2421875 252.7734375 C5.57534693 258.12616386 10.01710769 263.33480553 14.6640625 268.41796875 C16.56765442 270.52210631 18.42978003 272.6506546 20.28515625 274.796875 C35.12609659 291.90959314 35.12609659 291.90959314 54 304 C57.9107488 304.2095044 61.24014048 304.03066325 65 303 C67.10435896 293.83100739 68.47545004 285.45617311 68 276 C67.32195312 276.34933594 66.64390625 276.69867187 65.9453125 277.05859375 C59.79105083 280.06753332 53.96998277 282.48454426 47 282 C44.58441841 281.14257735 43.35435706 280.50799439 41.8828125 278.3984375 C35.9401347 262.53087512 45.1708791 241.26822397 51.77587891 226.74414062 C59.47349217 210.27017664 68.22148968 194.94647142 80 181 C80.71027344 180.154375 81.42054688 179.30875 82.15234375 178.4375 C92.56375958 166.43418052 102.32826786 160.07763772 117.77734375 156.7890625 C121.63600996 155.84427392 125.15415831 154.46956705 128.78125 152.8671875 C137.95689903 149.28093031 148.57890161 151.03164406 158.12890625 151.87890625 C160.94396906 152.22989338 160.94396906 152.22989338 163 151 C164.49649362 150.87994547 165.99874793 150.82468549 167.5 150.8125 C168.2940625 150.79832031 169.088125 150.78414062 169.90625 150.76953125 C172 151 172 151 174 153 C174.10942725 159.34678025 172.23301924 164.38843783 169.75 170.125 C169.46261963 170.79354004 169.17523926 171.46208008 168.87915039 172.15087891 C167.35847974 175.51917478 165.73395973 178.46204774 163.484375 181.3984375 C160.49095068 185.44012943 159.01808078 189.73954308 157.5 194.5 C157.05781128 195.8617334 157.05781128 195.8617334 156.60668945 197.25097656 C146.09659266 230.29498882 146.09659266 230.29498882 149 264 C150.87272132 266.44067045 150.87272132 266.44067045 154 267 C167.14728096 266.58627438 176.10160556 256.52494518 185 248 C185.71542969 247.22914063 186.43085937 246.45828125 187.16796875 245.6640625 C189 244 189 244 192 244 C192.11799721 249.42787168 190.56381209 251.90618742 186.9375 255.9375 C185.30308425 257.63606079 183.65751869 259.32397631 182 261 C181.36707031 261.69351562 180.73414063 262.38703125 180.08203125 263.1015625 C170.68454457 273.16027959 158.31489589 281.9418019 144.1875 282.4375 C138.13046043 282.17040437 134.67875859 280.6397177 130.3125 276.375 C122.28722806 266.00149736 123.12391741 250.72952641 124.63671875 238.44140625 C125.25741859 233.75893381 125.93250355 229.08521894 126.63623047 224.41455078 C127.10865301 221.27880652 127.55516451 218.1397612 128 215 C127.40574219 215.78761719 126.81148437 216.57523438 126.19921875 217.38671875 C94.4568622 259.21446112 94.4568622 259.21446112 74 272 C73.34 272 72.68 272 72 272 C72 272.66 72 273.32 72 274 C72.66 274 73.32 274 74 274 C76.91300272 286.97846748 77.76900772 299.53885727 71.0625 311.4375 C68.29945175 314.87037813 66.17522243 316.60825919 62 318 C46.44618193 319.58712429 34.98157564 313.35032766 23 304 C22.20706543 303.38366699 21.41413086 302.76733398 20.59716797 302.13232422 C13.6202413 296.5752015 7.25613658 290.56657139 0.98339844 284.24414062 C-0.62347307 282.62653713 -2.24078494 281.01993087 -3.859375 279.4140625 C-9.62787065 273.6525521 -15.02179692 267.78051058 -20.08789062 261.38354492 C-21.94188624 259.07244186 -23.87600917 256.87352619 -25.875 254.6875 C-30.67398911 249.34059481 -35.049867 243.67366903 -39.44775391 237.99804688 C-41.06611182 235.91490105 -42.69425322 233.83969845 -44.32421875 231.765625 C-51.17741024 223.02606548 -57.87817586 214.19615589 -64.38208008 205.19262695 C-64.92888428 204.44070068 -65.47568848 203.68877441 -66.0390625 202.9140625 C-66.51553223 202.2535791 -66.99200195 201.5930957 -67.48291016 200.91259766 C-67.9835498 200.28144043 -68.48418945 199.6502832 -69 199 C-69.60134766 198.24170898 -70.20269531 197.48341797 -70.82226562 196.70214844 C-72.89548384 194.71069331 -72.89548384 194.71069331 -75.71044922 195.06494141 C-76.73154785 195.32452637 -77.75264648 195.58411133 -78.8046875 195.8515625 C-79.94679688 196.12613281 -81.08890625 196.40070313 -82.265625 196.68359375 C-84.05226563 197.14958984 -84.05226563 197.14958984 -85.875 197.625 C-100.877488 201.36723135 -114.96267998 203.31729119 -130.375 203.125 C-131.8046811 203.11493182 -133.23436921 203.10581288 -134.6640625 203.09765625 C-138.10952479 203.0759886 -141.5547146 203.04167943 -145 203 C-176.54403662 256.83269277 -176.54403662 256.83269277 -183.125 315.9375 C-182.35785318 319.10664203 -182.35785318 319.10664203 -180 320 C-178.32938304 319.91008832 -176.66206958 319.75373244 -175 319.5625 C-169.64331186 319.01055591 -164.38035091 318.89496061 -159 319 C-159 319.99 -159 320.98 -159 322 C-164.72677793 324.91545058 -170.33477705 326.72950012 -176.5625 328.1875 C-177.62392212 328.43741699 -177.62392212 328.43741699 -178.70678711 328.69238281 C-187.73015148 330.72658184 -197.35643246 332.5773056 -205.9296875 327.9609375 C-209.85116733 324.93691076 -212.52886474 321.00871997 -213.30224609 316.06982422 C-213.44076036 313.8911854 -213.46749524 311.7453567 -213.4375 309.5625 C-213.42847656 308.76755127 -213.41945313 307.97260254 -213.41015625 307.15356445 C-213.18639988 299.38036153 -211.55085597 292.33544383 -209 285 C-208.61328125 283.86667236 -208.61328125 283.86667236 -208.21875 282.71044922 C-202.97934303 267.60167322 -196.16766473 253.27579736 -189 239 C-188.56397461 238.13068848 -188.12794922 237.26137695 -187.67871094 236.36572266 C-182.47796081 226.07604462 -176.81653572 216.1288452 -170.7578125 206.3190918 C-170.26796875 205.52156494 -169.778125 204.72403809 -169.2734375 203.90234375 C-168.83435059 203.19585693 -168.39526367 202.48937012 -167.94287109 201.76147461 C-166.84269347 200.03911091 -166.84269347 200.03911091 -167 198 C-168.03898437 197.57589844 -169.07796875 197.15179687 -170.1484375 196.71484375 C-182.01346612 191.76942006 -193.93653816 186.40357199 -200.3125 174.5625 C-202.72172599 165.58265769 -202.0028986 158.52257373 -197.75 150.25 C-195.2807355 146.13935851 -193.12252695 143.50584972 -189 141 C-186.19128592 140.61399228 -183.85498909 140.75388025 -181 141 C-180.25 142.625 -180.25 142.625 -180 145 C-181.85486745 148.16014454 -184.0002582 151.00034672 -186.1875 153.9375 C-189.04758696 158.77006073 -189.22395931 162.43228486 -188.4375 167.9375 C-186.03180076 176.06656214 -180.77508215 180.67910866 -173.5390625 184.6796875 C-172.28222656 185.33324219 -172.28222656 185.33324219 -171 186 C-170.22398437 186.41507813 -169.44796875 186.83015625 -168.6484375 187.2578125 C-165.01548373 189.29388071 -165.01548373 189.29388071 -161 190 C-159.75797018 188.470599 -159.75797018 188.470599 -158.56640625 186.44140625 C-158.0878418 185.67127197 -157.60927734 184.9011377 -157.11621094 184.10766602 C-156.60348633 183.26776123 -156.09076172 182.42785645 -155.5625 181.5625 C-154.47609589 179.81198121 -153.38883852 178.06199172 -152.30078125 176.3125 C-151.74986816 175.42304687 -151.19895508 174.53359375 -150.63134766 173.6171875 C-148.21333684 169.73794835 -145.73781634 165.89722327 -143.25 162.0625 C-142.80108398 161.36833984 -142.35216797 160.67417969 -141.88964844 159.95898438 C-138.45506625 154.6622186 -134.93583114 149.42755359 -131.36328125 144.22265625 C-129.82571898 142.15043013 -129.82571898 142.15043013 -130 140 C-138.37473653 136.30720279 -146.20419502 134.35323497 -155.2890625 136.5546875 C-161.56425668 139.09868514 -165.02452707 144.12051747 -168 150 C-169.85227711 154.74996136 -171.5287786 159.56063191 -173.07226562 164.41943359 C-175.41749443 171.50530497 -175.41749443 171.50530497 -178.6171875 174.22265625 C-181 175 -181 175 -183 174 C-183.78467318 159.8758827 -176.98001685 147.96352021 -168.13671875 137.3515625 C-159.70752419 128.07482553 -149.74266596 120.01511894 -136.92578125 118.6796875 C-129.18652195 118.4049209 -123.04232159 119.83871736 -116 123 C-115.72849121 122.26297852 -115.45698242 121.52595703 -115.17724609 120.76660156 C-114.05582668 118.13119618 -112.81737202 116.06212391 -111.1640625 113.734375 C-110.31908203 112.53639282 -110.31908203 112.53639282 -109.45703125 111.31420898 C-108.85246094 110.46802002 -108.24789063 109.62183105 -107.625 108.75 C-106.99722656 107.86320557 -106.36945313 106.97641113 -105.72265625 106.06274414 C-104.43325425 104.24178942 -103.14191062 102.422208 -101.84863281 100.60400391 C-100.18949452 98.266924 -98.54085808 95.92306255 -96.8984375 93.57421875 C-91.64480471 86.06802502 -86.30398299 78.63045854 -80.875 71.25 C-80.2867041 70.45021729 -79.6984082 69.65043457 -79.09228516 68.82641602 C-76.01618728 64.66496498 -72.8839199 60.56147051 -69.66748047 56.5078125 C-65.9991361 51.87353083 -63.07171361 47.61268533 -60.91015625 42.11328125 C-57.74767851 34.77036084 -52.25259899 28.89957316 -47 23 C-71.96441845 17.69164857 -96.33886317 14.77148968 -121.875 14.8125 C-122.58310822 14.81310425 -123.29121643 14.8137085 -124.02078247 14.81433105 C-168.41027924 14.91593862 -216.69638682 21.05242161 -256 43 C-256.9384375 43.51304687 -257.876875 44.02609375 -258.84375 44.5546875 C-269.46741717 50.6206703 -279.76338294 57.94895125 -283.9375 69.875 C-285.82541222 77.20189741 -285.16727418 84.44787837 -281.390625 91.0703125 C-275.20102753 99.65924832 -266.21356512 103.7582928 -256.89892578 108.10693359 C-254.24161567 109.3566688 -251.6211313 110.67638462 -249 112 C-248.21625 112.391875 -247.4325 112.78375 -246.625 113.1875 C-245.820625 113.5896875 -245.820625 113.5896875 -245 114 C-245.495 115.98 -245.495 115.98 -246 118 C-253.0911007 118.38622756 -258.79246414 117.59115726 -265.4375 115.125 C-266.29005371 114.81546387 -267.14260742 114.50592773 -268.02099609 114.18701172 C-281.66930795 109.04849887 -294.95875932 102.81204132 -305 92 C-305.53882813 91.44441406 -306.07765625 90.88882813 -306.6328125 90.31640625 C-311.68934755 84.75421769 -312.47605652 79.07454174 -312.30859375 71.8046875 C-311.3992986 63.54046074 -306.70909354 57.72088918 -301 52 C-300.43796875 51.42636719 -299.8759375 50.85273437 -299.296875 50.26171875 C-255.32391567 8.67859416 -172.96267529 4.43631872 -116 6 C-93.95896285 6.84233263 -71.83731768 9.45018918 -50.42749023 14.86865234 C-45.61152868 16.19827317 -45.61152868 16.19827317 -41 15 C-39.0500767 12.59977453 -39.0500767 12.59977453 -37.25 9.6875 C-33.6880927 4.59529178 -30.89792745 1.89617786 -25 0 C-23.783125 -0.4125 -22.56625 -0.825 -21.3125 -1.25 C-14.64098307 -2.73550675 -6.00826681 -3.67495931 0 0 Z M-22 29 C-23.66740889 30.67971449 -25.2790545 32.37893409 -26.875 34.125 C-27.36605225 34.66125 -27.85710449 35.1975 -28.36303711 35.75 C-32.44380372 40.26727137 -36.22665281 44.97682401 -39.94726562 49.79223633 C-42.84263344 53.5392735 -45.81401655 57.1976714 -48.875 60.8125 C-54.60835694 67.64354078 -59.9953382 74.72658322 -65.36962891 81.84179688 C-66.9342173 83.91292018 -68.50391946 85.98008031 -70.07421875 88.046875 C-76.24952998 96.20093756 -82.22968138 104.47458905 -88.08203125 112.86328125 C-90.0142952 115.6252325 -91.98959706 118.34614761 -94.01171875 121.04296875 C-94.48399902 121.67960449 -94.9562793 122.31624023 -95.44287109 122.97216797 C-96.33264001 124.16772556 -97.23222453 125.35606252 -98.14306641 126.53564453 C-100.41292883 129.55073254 -100.41292883 129.55073254 -100.953125 133.1796875 C-99.84782255 135.29063398 -98.66260085 136.66599144 -96.9375 138.3125 C-96.31488281 138.910625 -95.69226562 139.50875 -95.05078125 140.125 C-92.28672527 142.6521369 -89.46405947 145.10464481 -86.6015625 147.51953125 C-85 149 -85 149 -84 151 C-83.34 151 -82.68 151 -82 151 C-81.72760498 151.59530518 -81.45520996 152.19061035 -81.17456055 152.80395508 C-80.02967324 154.94452072 -78.8825856 156.39719721 -77.20703125 158.13671875 C-76.66199951 158.71019043 -76.11696777 159.28366211 -75.55541992 159.87451172 C-74.98025635 160.47279785 -74.40509277 161.07108398 -73.8125 161.6875 C-68.87420268 166.90329104 -64.27090002 172.21666687 -60 178 C-52.58729701 175.7731069 -45.96736208 172.66082102 -39.125 169.0625 C-37.4838623 168.20241333 -37.4838623 168.20241333 -35.80957031 167.32495117 C-16.90313853 157.28590607 0.38619429 145.69851365 16 131 C16.68578125 130.37867188 17.3715625 129.75734375 18.078125 129.1171875 C29.80532538 118.08253832 38.71111511 103.55562784 39.3125 87.1875 C39.04567847 77.07967276 36.19837925 68.93074678 30 61 C29.2575 59.989375 28.515 58.97875 27.75 57.9375 C15.30877229 43.74672465 -3.7634521 35.59261127 -21 29 C-21.33 29 -21.66 29 -22 29 Z M-114 151 C-115.28942082 152.52705844 -115.28942082 152.52705844 -116.546875 154.56640625 C-117.05573242 155.35160645 -117.56458984 156.13680664 -118.08886719 156.94580078 C-118.63704102 157.80931152 -119.18521484 158.67282227 -119.75 159.5625 C-120.3162207 160.44405762 -120.88244141 161.32561523 -121.46582031 162.23388672 C-132.32516025 178.77520696 -132.32516025 178.77520696 -142 196 C-120.4900729 198.11666836 -99.00658524 194.34535738 -79 186 C-83.23989101 180.05533825 -87.8939412 174.71009459 -92.9375 169.4375 C-93.61490234 168.72142578 -94.29230469 168.00535156 -94.99023438 167.26757812 C-102.86945035 158.4135947 -102.86945035 158.4135947 -112 151 C-112.66 151 -113.32 151 -114 151 Z M103 182 C85.56883592 204.02047883 69.21219613 233.40278933 63 261 C63.28812831 263.29965889 63.28812831 263.29965889 64 265 C71.6133535 264.24986076 76.26162077 259.68200327 82 255 C82.57911133 254.53062012 83.15822266 254.06124023 83.75488281 253.57763672 C103.85864053 237.16561995 116.59429254 217.51392173 129 195 C129.57669434 193.95489258 130.15338867 192.90978516 130.74755859 191.83300781 C132.52620525 188.60077584 134.29667192 185.36425128 136.0625 182.125 C136.61083496 181.12082031 137.15916992 180.11664062 137.72412109 179.08203125 C140.40017676 174.13337904 142.89885046 169.22015699 145 164 C128.35228277 159.41908452 113.43070095 169.82797542 103 182 Z " fill="#DEDAD7" transform="translate(1803,528)"/>
<path d="M0 0 C1.4375 1.6875 1.4375 1.6875 1.4375 5.6875 C0.7775 5.6875 0.1175 5.6875 -0.5625 5.6875 C-0.78421875 6.35652344 -1.0059375 7.02554688 -1.234375 7.71484375 C-2.97012936 11.59987042 -5.32186727 14.81442369 -7.8125 18.25 C-8.90013314 19.77185423 -9.9873558 21.29400188 -11.07421875 22.81640625 C-11.64446777 23.61191895 -12.2147168 24.40743164 -12.80224609 25.22705078 C-22.06085557 38.1685579 -31.05961626 51.23703186 -39.5625 64.6875 C-40.12549805 65.5738916 -40.68849609 66.4602832 -41.26855469 67.37353516 C-56.24791181 90.98554167 -70.12745388 115.16827206 -83.5625 139.6875 C-84.13436035 140.73067383 -84.7062207 141.77384766 -85.29541016 142.84863281 C-117.1246789 192.35411478 -117.1246789 192.35411478 -130.5625 246.6875 C-128.96792758 249.16780278 -128.96792758 249.16780278 -126.5625 250.6875 C-113.86938726 251.86023324 -101.35078353 239.45517065 -92.16113281 232.01855469 C-91.07441309 231.11372941 -90.00635018 230.18611995 -88.95605469 229.23925781 C-84.96938776 225.6875 -84.96938776 225.6875 -80.5625 225.6875 C-80.71237054 232.73141519 -83.73519838 236.71751952 -88.5625 241.6875 C-104.08116187 255.91467592 -123.89723829 267.03942209 -145.21484375 267.21875 C-149.19049291 266.58784185 -150.79518918 265.57857248 -153.5625 262.6875 C-154.875 259.9375 -154.875 259.9375 -155.5625 257.6875 C-156.21734375 258.13480469 -156.8721875 258.58210938 -157.546875 259.04296875 C-167.85562838 265.87178985 -177.81647343 271.66119731 -190.5625 269.6875 C-194.54803106 268.40207647 -197.04174002 266.28058776 -199.8125 263.125 C-208.43674175 246.18452514 -204.93411827 226.07488538 -201.53515625 208.140625 C-200.56784667 203.00975827 -199.98700031 197.88922337 -199.5625 192.6875 C-199.90917725 193.11458252 -200.25585449 193.54166504 -200.61303711 193.98168945 C-203.442406 197.46683206 -206.27306517 200.95091687 -209.10546875 204.43359375 C-211.11242829 206.90147134 -213.11635102 209.3716583 -215.11328125 211.84765625 C-219.41702972 217.1604541 -223.84940087 222.31154192 -228.45703125 227.36328125 C-230.30227555 229.40023925 -232.0933167 231.47020847 -233.875 233.5625 C-260.22299678 263.60527334 -260.22299678 263.60527334 -277.875 264.9375 C-283.07183695 264.58517207 -286.87514151 263.10123279 -290.875 259.75 C-294.06080792 255.85623476 -294.78840413 252.62825103 -295.5625 247.6875 C-296.14515625 248.25597656 -296.7278125 248.82445312 -297.328125 249.41015625 C-307.64340275 259.12533136 -318.79296759 266.46022627 -333.39453125 266.7421875 C-339.93258771 266.29128705 -344.53186243 264.71813757 -349.25 260 C-357.31947472 249.56936065 -356.61827415 234.61254625 -355.29443359 222.16748047 C-353.28145453 207.68371171 -348.7734026 193.8230615 -344.23339844 179.96801758 C-343.46842417 177.76390997 -343.46842417 177.76390997 -343.5625 175.6875 C-348.37301276 180.39983903 -353.04093951 185.15508684 -357.42578125 190.265625 C-360.36270796 193.59449988 -363.40097531 196.82458133 -366.4375 200.0625 C-371.13250907 205.07186306 -375.78393756 210.11154599 -380.35546875 215.234375 C-382.43007351 217.54030737 -384.53299051 219.81790202 -386.64257812 222.09179688 C-391.44555163 227.27795121 -396.0254392 232.57532833 -400.42578125 238.11328125 C-402.47745702 240.5850442 -404.66798044 242.79298044 -406.9375 245.0625 C-411.00298803 249.49612277 -411.84944113 253.7968137 -412.6015625 259.671875 C-414.09627354 264.36259419 -417.2997798 266.44783071 -421.43945312 268.71582031 C-423.4366632 269.68859079 -425.45336863 270.57392612 -427.5 271.4375 C-428.17740234 271.74042969 -428.85480469 272.04335938 -429.55273438 272.35546875 C-433.91683991 274.23835225 -437.83186138 275.21875354 -442.5625 275.6875 C-442.02906623 269.87249626 -440.33752524 265.31983669 -437.90625 260.0390625 C-437.53219528 259.20623245 -437.15814056 258.3734024 -436.77275085 257.51533508 C-435.96509761 255.71785171 -435.15378892 253.92200723 -434.33920288 252.12765503 C-432.14830515 247.29668233 -429.9897962 242.45131175 -427.83203125 237.60546875 C-427.38926346 236.61190872 -426.94649567 235.61834869 -426.49031067 234.59468079 C-422.08307559 224.67065994 -417.88635178 214.66441165 -413.75 204.625 C-413.39986847 203.77671631 -413.04973694 202.92843262 -412.68899536 202.05444336 C-409.37976753 194.03325312 -406.09304649 186.00307173 -402.8327179 177.96188354 C-394.57282928 157.59451278 -385.78225786 137.53669978 -376.46875 117.62823486 C-375.61348597 115.79668649 -374.76360219 113.96262851 -373.9140625 112.12841797 C-362.73374869 88.01199869 -350.44430814 62.51216677 -333.87988281 41.55908203 C-332.12237723 39.0622255 -332.55705551 37.84775114 -333 34.875 C-333.25608329 26.88306724 -328.36413116 21.61572934 -323.82714844 15.48583984 C-322.03994355 12.9444207 -320.61558955 10.22305263 -319.125 7.5 C-316.08182776 2.77710913 -313.28178902 0.74070926 -307.8828125 -0.80078125 C-300.74095845 -1.90146699 -290.72268542 -3.41929028 -284.5625 0.6875 C-283.89774445 3.38073754 -284.16165695 5.00680481 -285.5703125 7.39892578 C-287.01122306 9.3996638 -288.51965945 11.32678965 -290.0625 13.25 C-291.17563399 14.6829907 -292.28630134 16.11790078 -293.39453125 17.5546875 C-293.93932129 18.25819336 -294.48411133 18.96169922 -295.04541016 19.68652344 C-297.75971439 23.26657453 -300.19277799 27.02196878 -302.6484375 30.78125 C-304.67085866 33.85202825 -306.76545122 36.86348867 -308.875 39.875 C-314.30948429 47.67995681 -319.46644887 55.6584698 -324.5625 63.6875 C-325.07329102 64.49219727 -325.58408203 65.29689453 -326.11035156 66.12597656 C-334.71325096 79.73265724 -342.78277933 93.59562809 -350.5625 107.6875 C-351.11518555 108.68313965 -351.66787109 109.6787793 -352.23730469 110.70458984 C-373.08574121 148.36531145 -390.35969904 187.44796192 -405.5625 227.6875 C-402.57579456 225.34496084 -399.72580127 222.97817975 -397.0390625 220.296875 C-396.10175293 219.36270752 -396.10175293 219.36270752 -395.14550781 218.40966797 C-394.17629395 217.43344482 -394.17629395 217.43344482 -393.1875 216.4375 C-392.51557617 215.76219238 -391.84365234 215.08688477 -391.15136719 214.39111328 C-386.77106215 209.96489086 -382.54478426 205.47712662 -378.5625 200.6875 C-377.30140358 199.19766538 -376.04024857 197.7078801 -374.77832031 196.21875 C-373.35792173 194.5423436 -371.93843425 192.86517243 -370.51953125 191.1875 C-369.7917749 190.32705078 -369.7917749 190.32705078 -369.04931641 189.44921875 C-368.05499553 188.27105463 -367.06249147 187.09135488 -366.07177734 185.91015625 C-359.97659108 178.64442395 -353.74735725 171.70546092 -346.953125 165.0859375 C-344.96137491 163.08767842 -343.18926166 161.07913967 -341.4375 158.875 C-338.10894238 154.87882338 -333.98872787 152.34177833 -329.5625 149.6875 C-328.76972656 149.19765625 -327.97695312 148.7078125 -327.16015625 148.203125 C-320.37485947 144.18388099 -320.37485947 144.18388099 -315.5625 144.6875 C-313.20163692 146.96966764 -312.59990344 148.78383285 -312.46484375 152.046875 C-312.95091559 160.25081928 -314.68108807 169.10611113 -319.91015625 175.60546875 C-323.64787739 180.65297782 -325.01377439 186.72519277 -326.67504883 192.69116211 C-327.24328498 194.72595423 -327.83555614 196.75251106 -328.43164062 198.77929688 C-332.88050625 214.19469719 -337.81599899 235.10391429 -331.5625 250.6875 C-327.74249167 253.23417222 -325.87444451 252.97154537 -321.44140625 252.41015625 C-311.52376833 249.92065419 -303.68942879 242.66566937 -296.5625 235.6875 C-296.01851562 235.23632812 -295.47453125 234.78515625 -294.9140625 234.3203125 C-292.90625413 231.8946943 -292.37499617 229.32674536 -291.5 226.3125 C-286.31314454 209.70714391 -277.64678525 194.43496733 -268.5625 179.6875 C-269.2225 179.0275 -269.8825 178.3675 -270.5625 177.6875 C-270.49195956 170.97734057 -267.35082255 165.94786925 -264.0625 160.25 C-263.57007812 159.34701172 -263.07765625 158.44402344 -262.5703125 157.51367188 C-258.35995758 150.13486459 -253.26631632 143.80882893 -245.375 140.25 C-239.32093395 139.03918679 -233.74090865 138.18924124 -227.5625 138.6875 C-226.9025 139.3475 -226.2425 140.0075 -225.5625 140.6875 C-225.79638627 146.09914436 -228.13304978 150.15736933 -230.75 154.75 C-231.18779785 155.53238037 -231.6255957 156.31476074 -232.07666016 157.12084961 C-235.04114602 162.31408331 -238.26472432 167.2638101 -241.66308594 172.18164062 C-256.54775063 193.72631214 -269.5945601 219.18055437 -271.5625 245.6875 C-254.54464049 245.06866875 -238.52640756 225.46734391 -227.5625 213.6875 C-224.39982694 210.14098115 -221.45216471 206.45694933 -218.5625 202.6875 C-218.01335938 201.97706543 -217.46421875 201.26663086 -216.8984375 200.53466797 C-200.2875273 179.98934669 -200.2875273 179.98934669 -189.37890625 156.27734375 C-187.45694972 150.18041943 -184.0069304 145.10609583 -178.5625 141.6875 C-172.576735 139.02982034 -167.07218825 137.53522771 -160.5 137.4375 C-158.93572266 137.39882813 -158.93572266 137.39882813 -157.33984375 137.359375 C-154.5625 137.6875 -154.5625 137.6875 -152.69140625 139.203125 C-152.31886719 139.69296875 -151.94632813 140.1828125 -151.5625 140.6875 C-152.85429384 145.35572854 -154.59964832 148.33995287 -157.75 152 C-158.95462891 153.43859375 -158.95462891 153.43859375 -160.18359375 154.90625 C-161.61975366 156.58530723 -163.06707922 158.25502673 -164.53515625 159.90625 C-180.74606063 179.00305164 -182.9416758 215.73793679 -182.5625 239.6875 C-182.20726731 247.35638881 -182.20726731 247.35638881 -178.5625 253.6875 C-173.01964458 255.44499074 -168.66798777 254.03637892 -163.5625 251.6875 C-161.12502352 250.13176217 -158.87332944 248.43241203 -156.5625 246.6875 C-155.9025 246.6875 -155.2425 246.6875 -154.5625 246.6875 C-154.376875 245.429375 -154.19125 244.17125 -154 242.875 C-144.91398927 198.31620764 -116.30685944 152.77294858 -93.5625 113.6875 C-93.04123535 112.78805664 -92.5199707 111.88861328 -91.98291016 110.96191406 C-85.93502125 100.5468284 -79.72861695 90.23143892 -73.375 80 C-72.7665625 79.01878174 -72.158125 78.03756348 -71.53125 77.02661133 C-68.03492923 71.44826759 -64.41381319 65.9852994 -60.64453125 60.58984375 C-59.81175329 59.38589578 -58.9793135 58.18171383 -58.1472168 56.97729492 C-56.55405287 54.67198464 -54.93138587 52.39223161 -53.28833008 50.12231445 C-48.82071314 43.67586532 -47.00705945 39.35008067 -46.85693359 31.52685547 C-46.33755352 26.51824 -43.64140772 22.91966449 -40.8125 18.875 C-40.2865625 18.08158203 -39.760625 17.28816406 -39.21875 16.47070312 C-37.69569032 14.18799858 -36.13652391 11.93527021 -34.5625 9.6875 C-34.09529541 9.00550537 -33.62809082 8.32351074 -33.14672852 7.62084961 C-28.84106653 1.41701835 -25.0222593 -0.15050042 -17.75 -1.5625 C-11.5313384 -2.48178041 -5.71388133 -2.92662214 0 0 Z " fill="#DEDAD7" transform="translate(2422.5625,540.3125)"/>
<path d="M0 0 C2 2 2 2 2.26000977 4.76147461 C1.98247216 8.21831624 1.19808891 10.63490033 -0.16015625 13.81640625 C-0.62059326 14.90445557 -1.08103027 15.99250488 -1.55541992 17.11352539 C-2.05275635 18.25168701 -2.55009277 19.38984863 -3.0625 20.5625 C-3.56692627 21.72966553 -4.07135254 22.89683105 -4.59106445 24.09936523 C-17.21091068 52.99519936 -17.21091068 52.99519936 -26.109375 56.93359375 C-28.78232488 58.44127003 -29.05764291 60.00281739 -30.0625 62.875 C-32.33780156 68.71680187 -35.12837409 74.09312179 -38.1875 79.5625 C-38.66936768 80.4275415 -39.15123535 81.29258301 -39.64770508 82.18383789 C-40.62907198 83.94509472 -41.61092339 85.70608167 -42.59326172 87.46679688 C-55.41239887 110.55103274 -67.2174449 134.46547682 -77 159 C-76.18845459 159.02505615 -75.37690918 159.0501123 -74.54077148 159.07592773 C-70.83954284 159.19245817 -67.13853319 159.314925 -63.4375 159.4375 C-62.16068359 159.47681641 -60.88386719 159.51613281 -59.56835938 159.55664062 C-58.32763672 159.59853516 -57.08691406 159.64042969 -55.80859375 159.68359375 C-54.67220459 159.72025146 -53.53581543 159.75690918 -52.36499023 159.79467773 C-48.8488012 160.00922573 -45.46070693 160.33381191 -42 161 C-40.5625 163.0625 -40.5625 163.0625 -40 165 C-47.8840047 168.33888082 -55.94032373 169.56449283 -64.35742188 170.9296875 C-74.44669604 172.68745831 -74.44669604 172.68745831 -83 178 C-84.94251894 181.17883139 -85.97263988 184.43397228 -87 188 C-87.43892578 189.34505615 -87.43892578 189.34505615 -87.88671875 190.71728516 C-96.9633415 218.83400684 -100.07166682 246.60655627 -101 276 C-99.88439697 276.02505615 -98.76879395 276.0501123 -97.61938477 276.07592773 C-93.4950741 276.16983421 -89.3709385 276.27009514 -85.24682617 276.37231445 C-83.4591073 276.415727 -81.67134526 276.45739729 -79.88354492 276.49731445 C-77.31936609 276.5548646 -74.75540588 276.61860203 -72.19140625 276.68359375 C-70.98515343 276.70866249 -70.98515343 276.70866249 -69.75453186 276.73423767 C-64.11387171 276.88612829 -64.11387171 276.88612829 -63 278 C-62.36777764 285.08490451 -65.62675007 288.76180045 -70 294 C-76.74342432 301.38866754 -83.71271671 305.43080786 -93.75390625 306.33984375 C-102.3285165 306.55271888 -108.268556 305.75083953 -115.6875 301.4375 C-120.39579806 296.47469934 -123.16773409 290.84569229 -123 284 C-123.91241455 283.95174072 -124.8248291 283.90348145 -125.76489258 283.85375977 C-134.82503989 283.32006001 -143.71572052 282.35587705 -152.6875 280.9375 C-153.3579837 280.83217957 -154.02846741 280.72685913 -154.7192688 280.61834717 C-194.60735218 274.29189402 -240.21632709 266.31331321 -274 243 C-278.42716313 244.64008707 -281.09818245 248.02959376 -284.1875 251.4375 C-284.76483887 252.06785156 -285.34217773 252.69820312 -285.93701172 253.34765625 C-290.83492022 258.73494665 -295.4805242 264.29160287 -300 270 C-300.89254989 271.10081153 -301.78581409 272.20104416 -302.6796875 273.30078125 C-309.05276615 281.20087039 -314.67469183 289.36464733 -320 298 C-320.55429687 298.84949219 -321.10859375 299.69898438 -321.6796875 300.57421875 C-326.17886844 307.6260438 -329.20899871 315.15480727 -332 323 C-332.41765625 324.13953125 -332.8353125 325.2790625 -333.265625 326.453125 C-336.21770999 335.72516659 -336.31595179 344.38072028 -336.02880859 354.05249023 C-336.00125488 355.05223877 -335.97370117 356.0519873 -335.9453125 357.08203125 C-335.90937988 357.98155518 -335.87344727 358.8810791 -335.83642578 359.80786133 C-336 362 -336 362 -338 364 C-342.36315913 364.42916319 -344.8599082 364.59595708 -348.75 362.5625 C-353.81084868 356.79875567 -355.35803665 351.25644297 -355.21606445 343.68505859 C-354.85849927 339.24155359 -353.72740218 335.12887306 -352.4375 330.875 C-352.03096191 329.50758667 -352.03096191 329.50758667 -351.61621094 328.11254883 C-341.8568165 296.26625058 -320.3698097 271.13835209 -297.640625 247.5 C-297.08560303 246.91605469 -296.53058105 246.33210937 -295.95874023 245.73046875 C-294.88331754 244.60002294 -293.79978328 243.47722389 -292.70727539 242.36328125 C-289.38094777 238.85946699 -289.38094777 238.85946699 -289 234 C-291.13148414 231.53341002 -291.13148414 231.53341002 -293.9375 229.0625 C-303.14591377 220.32777315 -310.80118366 210.37511051 -311.95703125 197.35546875 C-312.1025162 189.38024858 -309.24569231 182.94221577 -304 177 C-284.38400861 159.61785817 -250.93515683 157.41409868 -226.04296875 158.1875 C-224.18224731 158.23124756 -224.18224731 158.23124756 -222.28393555 158.27587891 C-219.80392315 158.34084342 -217.32447453 158.43580711 -214.84692383 158.56396484 C-209.00615877 158.70480425 -205.0341838 158.73136651 -200.5 154.7890625 C-199.31070011 153.54733044 -198.14188704 152.28546751 -197 151 C-196.0409375 150.13375 -195.081875 149.2675 -194.09375 148.375 C-193.2378125 147.59125 -192.381875 146.8075 -191.5 146 C-185.99100925 140.98086479 -180.41276483 136.05879564 -174.74609375 131.21875 C-173.53902687 130.1875417 -172.33199663 129.15629052 -171.125 128.125 C-170.51640137 127.60526611 -169.90780273 127.08553223 -169.28076172 126.55004883 C-165.74357043 123.52094405 -162.25598946 120.44843697 -158.8125 117.3125 C-154.57291957 113.46148995 -150.17067888 109.85156045 -145.71875 106.25 C-143.07852271 104.06498431 -140.5327028 101.80828609 -138 99.5 C-133.77986056 95.65808061 -129.41972816 92.03884779 -124.984375 88.44921875 C-121.61238107 85.68188865 -118.3034785 82.84838234 -115 80 C-110.06704136 75.75211919 -105.08679592 71.57553217 -100.03515625 67.46875 C-96.22140881 64.36670575 -92.42167563 61.24790293 -88.625 58.125 C-87.89047607 57.52131592 -87.15595215 56.91763184 -86.39916992 56.2956543 C-82.58250373 53.15209462 -78.79336186 49.98185006 -75.04199219 46.76074219 C-68.92278704 41.50961934 -62.60173916 36.57872469 -56.17602539 31.70825195 C-48.94401728 26.22158928 -41.82349785 20.64132152 -35.1875 14.4375 C-25.74559069 6.10297512 -12.85993659 -1.12806461 0 0 Z M-49.5 44.1875 C-50.48742187 44.9196875 -51.47484375 45.651875 -52.4921875 46.40625 C-53.04745117 46.81875 -53.60271484 47.23125 -54.17480469 47.65625 C-56.14945955 49.11003549 -58.1390128 50.54133948 -60.1328125 51.96875 C-75.56542539 63.01760125 -90.57840871 74.51212183 -105.24414062 86.56005859 C-106.80935592 87.84365701 -108.380817 89.11963072 -109.953125 90.39453125 C-120.13210232 98.65378916 -130.07420369 107.18726439 -139.78125 115.99609375 C-141.79308393 117.81311982 -143.82660434 119.59944392 -145.875 121.375 C-150.7927345 125.66200302 -155.5831583 130.08714402 -160.37939453 134.50878906 C-162.01900578 136.01748829 -163.66334177 137.52089335 -165.30859375 139.0234375 C-175.41296396 148.24719921 -175.41296396 148.24719921 -185 158 C-185 158.33 -185 158.66 -185 159 C-179.44221854 159.79014248 -174.08150682 160.14050792 -168.47265625 160.11352539 C-167.66194168 160.11367142 -166.85122711 160.11381744 -166.01594543 160.1139679 C-163.36476871 160.11327718 -160.71366429 160.10552458 -158.0625 160.09765625 C-156.21305378 160.09578908 -154.36360705 160.09436659 -152.51416016 160.09336853 C-147.66777153 160.08956692 -142.82141331 160.07975694 -137.97503662 160.06866455 C-133.02112235 160.05839958 -128.06720312 160.05386005 -123.11328125 160.04882812 C-113.40884088 160.03813239 -103.70442298 160.02108452 -94 160 C-91.37243213 154.29355911 -88.7553736 148.60837526 -86.51953125 142.734375 C-80.84677476 128.08054679 -74.70968498 113.73933684 -68.0625 99.5 C-62.42948002 87.43012981 -56.86104228 75.34605336 -51.5625 63.125 C-50.7746814 61.31805664 -50.7746814 61.31805664 -49.97094727 59.47460938 C-47.34736708 53.38654114 -44.98141775 47.32710347 -43 41 C-45.92671806 41 -47.16250567 42.4379865 -49.5 44.1875 Z M-216 189 C-216.62342285 189.50160645 -217.2468457 190.00321289 -217.88916016 190.52001953 C-221.36496593 193.319164 -224.82657627 196.13490153 -228.27734375 198.96484375 C-231.04653933 201.23192865 -233.84377249 203.4516171 -236.6875 205.625 C-247.30887339 213.82784434 -257.21829372 222.82664861 -267 232 C-236.21229909 264.97640002 -166.53177905 271.22346047 -124 275 C-123.96559814 274.36312256 -123.93119629 273.72624512 -123.89575195 273.07006836 C-123.72009262 270.02448957 -123.51614296 266.98133147 -123.3125 263.9375 C-123.25900391 262.93783203 -123.20550781 261.93816406 -123.15039062 260.90820312 C-121.65506634 239.64859263 -114.88476219 219.73718217 -107.75 199.8125 C-106.50710487 196.30004364 -105.26803807 192.78625723 -104.02984619 189.2721405 C-103.26667664 187.11062602 -102.50003639 184.95033287 -101.72943115 182.79145813 C-101.38527161 181.82491806 -101.04111206 180.85837799 -100.68652344 179.86254883 C-100.38405701 179.01702957 -100.08159058 178.17151031 -99.7699585 177.30036926 C-99.07148326 175.21356722 -98.49839791 173.14228226 -98 171 C-102.49271631 169.88267226 -106.90751895 169.83913985 -111.5078125 169.83203125 C-112.33785797 169.82779648 -113.16790344 169.82356171 -114.02310181 169.81919861 C-116.72378566 169.80929029 -119.42430111 169.80928389 -122.125 169.8125 C-123.04671997 169.81310425 -123.96843994 169.8137085 -124.91809082 169.81433105 C-173.2931497 169.31031877 -173.2931497 169.31031877 -216 189 Z M-287.15234375 190.9375 C-291.31971306 195.58944713 -291.38993822 200.38072817 -291.23828125 206.3671875 C-290.56793756 213.77393585 -284.78516587 219.63598342 -280 225 C-279.01 225.66 -278.02 226.32 -277 227 C-276.10861328 226.10075806 -276.10861328 226.10075806 -275.19921875 225.18334961 C-272.95733893 222.92425473 -270.71308469 220.66755127 -268.46728516 218.41235352 C-267.50248541 217.44257727 -266.53859105 216.4718993 -265.57568359 215.50024414 C-260.45376784 210.33302528 -255.31042519 205.26519717 -249.78320312 200.53149414 C-247.0396414 198.17520133 -244.39802258 195.71246278 -241.75 193.25 C-240.63162295 192.21472217 -239.5131305 191.179569 -238.39453125 190.14453125 C-237.26300888 189.09636707 -236.13149847 188.04818998 -235 187 C-232.81509598 184.97633422 -230.62743035 182.95572455 -228.4375 180.9375 C-227.48746094 180.05964844 -226.53742188 179.18179688 -225.55859375 178.27734375 C-223 176 -223 176 -220.66015625 174.31640625 C-220.11230469 173.88199219 -219.56445312 173.44757813 -219 173 C-219 172.34 -219 171.68 -219 171 C-242.92171226 169.63737082 -268.84943348 174.92648854 -287.15234375 190.9375 Z M-100 286 C-97.76300483 293.33629707 -97.76300483 293.33629707 -95.25 296.0625 C-91.81792598 297.49253084 -89.55234295 296.93482709 -86 296 C-81.11854304 293.07112582 -80.93099696 291.79299089 -79 286 C-85.93 286 -92.86 286 -100 286 Z " fill="#DEDAD7" transform="translate(927,532)"/>
<path d="M0 0 C1 1 1 1 1.3359375 3.40625 C0.84964698 8.60842761 -1.21602287 12.77836259 -3.375 17.5 C-3.84526611 18.54994141 -4.31553223 19.59988281 -4.80004883 20.68164062 C-10.40595782 33.09189655 -16.28203751 45.38083396 -22.15576172 57.66601562 C-22.54233444 58.47578857 -22.92890717 59.28556152 -23.32719421 60.11987305 C-24.06193022 61.65798957 -24.79836733 63.19529493 -25.53669739 64.73168945 C-27.24421678 67.74140957 -27.24421678 67.74140957 -28 71 C-27.57928223 70.57706161 -27.15856445 70.15412323 -26.72509766 69.71836853 C-22.3151084 65.28612274 -17.90149757 60.8575066 -13.48583984 56.4309082 C-11.84201896 54.78208256 -10.19909971 53.13235749 -8.55712891 51.48168945 C-6.18633142 49.09865653 -3.81222709 46.71896004 -1.4375 44.33984375 C-0.71320801 43.61039047 0.01108398 42.88093719 0.75732422 42.12937927 C5.34089833 37.54531067 10.08468012 33.22408854 15 29 C16.11929308 28.00496766 17.23682769 27.00794882 18.3515625 26.0078125 C40.05728702 6.79124656 40.05728702 6.79124656 53 7 C58.9443042 17.52786407 52.93199396 32.21450738 50 43 C48.67382067 47.71805665 47.32621244 52.42982444 45.97772217 57.14154053 C37.41437856 84.14741623 37.41437856 84.14741623 39.1875 111.8125 C40.72604273 115.00584968 40.72604273 115.00584968 43.0625 116.5625 C51.62035119 117.83707358 58.86333076 115.75777949 66 111 C70.86681437 107.2344356 75.4669703 103.1573435 80 99 C80.75152344 98.34257813 81.50304688 97.68515625 82.27734375 97.0078125 C84.46689145 94.45582266 85.18965635 92.14512767 86.1875 88.9375 C91.57135848 73.09779441 99.71440373 58.47817135 108 44 C107.34 43.34 106.68 42.68 106 42 C106.02968835 35.75554999 109.7480491 30.65104633 112.8125 25.4375 C113.34681641 24.50486328 113.88113281 23.57222656 114.43164062 22.61132812 C119.29047314 14.2264056 123.78381702 7.25433091 133.42578125 4.2421875 C138.99044866 3.01328739 144.31533034 2.72930144 150 3 C151 4 151 4 151.28125 6.6171875 C150.94111862 10.7082122 149.48549269 13.62245041 147.5 17.125 C147.1383374 17.78169678 146.7766748 18.43839355 146.40405273 19.11499023 C142.33684255 26.38485303 137.6329561 33.21087499 132.8828125 40.046875 C120.9568751 57.7872374 104.36842826 85.70185293 106 108 C106.33 108.66 106.66 109.32 107 110 C122.45646066 108.66754649 137.87179395 91.08807451 147.75 79.9375 C148.83896126 78.62966563 149.92191863 77.31681734 151 76 C151.70769531 75.18015625 152.41539062 74.3603125 153.14453125 73.515625 C174.47469601 48.71718225 174.47469601 48.71718225 188.22265625 19.484375 C190.17538329 13.24349864 194.52961195 8.44055946 200 5 C206.94917735 2.11441625 214.5190492 1.02697093 222 2 C222.99 2.66 223.98 3.32 225 4 C225.5409911 7.14089977 225.26396335 8.57852173 223.56640625 11.2890625 C222.90511719 12.05992187 222.24382812 12.83078125 221.5625 13.625 C220.83546875 14.49769531 220.1084375 15.37039063 219.359375 16.26953125 C217.80186081 18.0720187 216.22913144 19.8614839 214.640625 21.63671875 C197.7427961 41.05788116 194.83050743 73.98233038 194.6875 98.875 C194.67916138 100.05956787 194.67916138 100.05956787 194.6706543 101.26806641 C194.73738025 106.60956476 195.25721258 111.91943598 197 117 C199.48954321 119.10055208 201.05116602 119.05805802 204.234375 118.86328125 C216.93512475 117.02916677 226.75506284 106.72877914 235.16796875 97.6640625 C237 96 237 96 240 96 C239.76299959 105.24301598 231.00319656 112.4653988 224.80078125 118.5078125 C214.65791934 127.53312059 203.49642128 134.93618643 189.44140625 134.31640625 C183.94647 133.60426251 180.46909366 131.16262267 177.09765625 126.8046875 C168.54188693 112.73790662 171.93244285 94.81480911 174.48901367 79.59082031 C175.68936405 72.40287182 176.51048703 65.27159672 177 58 C169.41835423 66.87540361 169.41835423 66.87540361 162.0625 75.9375 C149.78276296 91.38057701 136.88018456 107.14983207 121 119 C120.14664062 119.65742187 119.29328125 120.31484375 118.4140625 120.9921875 C111.32058799 126.25227168 104.07968745 130.15559658 95 129 C89.22846256 127.07252429 85.77938726 124.55877452 83 119 C82.23653453 116.35256936 81.63480526 113.68274224 81 111 C80.22398437 111.71285156 79.44796875 112.42570313 78.6484375 113.16015625 C68.11066921 122.59910605 56.16449821 131.05504298 41.41015625 130.98828125 C32.7811474 130.40436336 25.86106474 127.41509573 20 121 C13.80121444 112.22159561 13.06647256 100.70588663 14.56884766 90.36572266 C17.42054182 74.71854458 22.38976506 59.31607988 26.77783203 44.0456543 C28.10979009 39.37992686 29.36129218 34.82306288 30 30 C15.77079296 33.28366316 2.12741092 50.33803312 -7 61 C-7.84949219 61.97324219 -8.69898438 62.94648437 -9.57421875 63.94921875 C-23.6668968 80.21371363 -36.99868129 97.90889286 -47.4375 116.75 C-53.72919267 127.89639381 -59.90627752 132.74910823 -72 137 C-75.46875 137.19140625 -75.46875 137.19140625 -78 137 C-79.12965347 134.23265652 -79.07653879 133.18743731 -77.92700195 130.37231445 C-77.36972412 129.3793335 -76.81244629 128.38635254 -76.23828125 127.36328125 C-75.62009521 126.24211914 -75.00190918 125.12095703 -74.36499023 123.96582031 C-74.03071014 123.37144165 -73.69643005 122.77706299 -73.35202026 122.16467285 C-71.57722183 119.00241272 -69.84879035 115.81496351 -68.1171875 112.62890625 C-67.58843269 111.65852921 -67.58843269 111.65852921 -67.04899597 110.66854858 C-58.67484578 95.24135292 -51.55522786 79.18659162 -44.5 63.125 C-44.20213593 62.44836304 -43.90427185 61.77172607 -43.59738159 61.07458496 C-40.11571151 53.14625675 -36.82506876 45.19141917 -34 37 C-35.32 36.67 -36.64 36.34 -38 36 C-37.06973111 29.6981556 -33.69196548 24.93051701 -30.4375 19.5625 C-29.84130859 18.53833984 -29.24511719 17.51417969 -28.63085938 16.45898438 C-23.42852891 7.84419277 -17.88430422 2.28411077 -8.1171875 -0.60546875 C-5.19056251 -1.15083614 -2.83533497 -0.85060049 0 0 Z " fill="#DEDAD7" transform="translate(944,676)"/>
<path d="M0 0 C0.99 0.99 0.99 0.99 2 2 C1.87643788 6.20111225 -0.20569954 8.92807929 -2.4296875 12.359375 C-8.17892112 22.02724049 -12.35333405 32.70985181 -16.6484375 43.078125 C-17.29631981 44.6379007 -17.29631981 44.6379007 -17.95729065 46.22918701 C-22.65528322 57.55392088 -27.30570893 68.8980544 -31.9375 80.25 C-32.36832886 81.30541992 -32.79915771 82.36083984 -33.24304199 83.44824219 C-38.47600694 96.27363317 -43.68263501 109.10816712 -48.75 122 C-49.19722412 123.13727539 -49.64444824 124.27455078 -50.10522461 125.44628906 C-52.05412568 129.60208837 -52.05412568 129.60208837 -53 134 C-52.21496094 133.97679687 -51.42992187 133.95359375 -50.62109375 133.9296875 C-39.21246459 133.73371105 -39.21246459 133.73371105 -34 136 C-32.5625 138.125 -32.5625 138.125 -32 140 C-35.19457351 141.88414642 -37.51502629 142.23819737 -41.203125 142.1953125 C-42.1828125 142.18886719 -43.1625 142.18242188 -44.171875 142.17578125 C-45.69554687 142.15064453 -45.69554687 142.15064453 -47.25 142.125 C-48.28125 142.11597656 -49.3125 142.10695313 -50.375 142.09765625 C-52.91690287 142.07412011 -55.4583328 142.04124023 -58 142 C-58.16520142 143.0367688 -58.16520142 143.0367688 -58.33374023 144.09448242 C-59.09994446 147.43585159 -60.29843253 150.34147092 -61.66015625 153.48828125 C-61.9256427 154.10402008 -62.19112915 154.71975891 -62.46466064 155.35415649 C-63.32479241 157.34285544 -64.19293965 159.32790734 -65.0625 161.3125 C-65.35756439 161.98950958 -65.65262878 162.66651917 -65.95663452 163.36404419 C-70.33647483 173.40627215 -74.89474268 183.3043933 -80 193 C-80.64993581 194.28700487 -81.29833475 195.57478683 -81.9453125 196.86328125 C-86.202518 205.23938285 -91.0393958 212.6949693 -97 220 C-97.45922852 220.56605957 -97.91845703 221.13211914 -98.39160156 221.71533203 C-118.42910973 246.26295492 -144.40137181 264.2417721 -176.4296875 267.71875 C-199.41462863 269.52937994 -221.93833863 264.81462112 -240 250 C-246.82752068 243.94177743 -250.3068721 236.86657742 -251.37890625 227.79296875 C-251.89742091 213.69271523 -245.80749958 203.49205994 -236.9375 193.0625 C-209.86766107 163.97252383 -164.67337883 148.73882174 -126.625 141.4375 C-125.53195557 141.22335449 -124.43891113 141.00920898 -123.31274414 140.78857422 C-116.17508726 139.48682225 -109.19036519 138.76013857 -101.95703125 138.31640625 C-83.94779478 138.07165028 -83.94779478 138.07165028 -68.81640625 130.41796875 C-66.30924042 126.14991723 -65.16724162 121.53988722 -64.01513672 116.75634766 C-62.80182838 112.2666983 -61.21185766 108.00178094 -59.53515625 103.66796875 C-59.05421257 102.42286278 -59.05421257 102.42286278 -58.56355286 101.15260315 C-57.89883326 99.43360606 -57.23350542 97.71484406 -56.56759644 95.99630737 C-54.89886211 91.64422192 -53.30223664 87.26581328 -51.6953125 82.890625 C-48.61939934 74.55676593 -45.34772881 66.32753219 -41.9375 58.125 C-36.69471772 45.43020079 -31.66075293 33.06763906 -29.625 19.4375 C-28.36589604 12.04486624 -26.00278924 7.55908044 -20 3 C-14.08974101 -0.78453174 -6.80937302 -0.8066488 0 0 Z M-93.5625 143.5625 C-94.22627655 143.65236176 -94.8900531 143.74222351 -95.57394409 143.83480835 C-141.16002663 150.07673883 -191.44282892 165.41845682 -222.3515625 201.8046875 C-229.05299844 210.72934863 -232.64848464 220.15178735 -231.82421875 231.3984375 C-230.5750476 238.59063501 -227.18772682 244.41779114 -221.51171875 249.015625 C-208.36886279 257.8642805 -193.89407426 259.35191568 -178.43359375 256.71484375 C-146.30143413 250.02521325 -122.77077811 225.29819575 -105.22265625 198.87890625 C-93.93165513 181.18821185 -85.22830055 161.81258896 -76 143 C-81.87502042 141.35967517 -87.59636462 142.74898681 -93.5625 143.5625 Z " fill="#DEDAD7" transform="translate(1238,686)"/>
<path d="M0 0 C2.81168523 0.28780603 2.81168523 0.28780603 5.71484375 -0.87890625 C12.76545457 -1.35360084 12.76545457 -1.35360084 15.71484375 0.12109375 C17.46643303 4.76585538 15.89532208 8.42577481 14.15234375 12.80859375 C13.8785791 13.51757812 13.60481445 14.2265625 13.32275391 14.95703125 C11.37968452 19.83636843 9.10760434 24.32301557 6.20703125 28.71484375 C2.23185723 35.12507201 -0.27884056 41.6172283 -2.28515625 48.87109375 C-2.53934326 49.7748877 -2.79353027 50.67868164 -3.05541992 51.60986328 C-7.13121539 66.46301492 -10.44297904 81.68141174 -10.53515625 97.12109375 C-10.55578125 97.98476563 -10.57640625 98.8484375 -10.59765625 99.73828125 C-10.63144303 105.2962073 -10.01798305 109.23827052 -7.28515625 114.12109375 C-2.80749594 116.04009102 1.00093379 114.82397655 5.375 113.171875 C13.43077625 109.55417248 19.18953144 103.93531897 25.11035156 97.52783203 C28.13754518 94.33411486 30.08506128 92.36973022 34.71484375 92.12109375 C33.49288887 103.27947121 22.75282988 111.80587558 14.49853516 118.734375 C4.83981152 126.24348398 -5.85472941 131.53163864 -18.28515625 130.12109375 C-22.6966857 128.82919827 -25.52365958 126.96491438 -28.59765625 123.55859375 C-32.58152722 115.44330103 -33.79230092 107.27004769 -33.66015625 98.30859375 C-33.65145508 96.84764282 -33.65145508 96.84764282 -33.64257812 95.35717773 C-33.46001369 84.83014023 -32.01147539 74.49278243 -30.28515625 64.12109375 C-30.97480469 65.01570312 -31.66445312 65.9103125 -32.375 66.83203125 C-37.39037282 73.29960042 -42.46198544 79.6275033 -48.01953125 85.64453125 C-49.90969095 87.71067133 -51.74957349 89.80502597 -53.58203125 91.921875 C-66.93634347 107.2083915 -84.32389435 126.23937858 -105.28515625 130.12109375 C-109.1641694 130.17877424 -112.31263601 130.06224237 -115.22265625 127.24609375 C-121.41077548 114.86985529 -114.98962877 99.25408223 -110.96875 87.046875 C-101.32817814 59.18310008 -82.4492439 23.6499834 -55.48046875 9.125 C-51.721462 7.4060236 -48.04005237 6.43691546 -43.984375 5.70703125 C-38.50004411 4.7005755 -33.63740497 3.23566364 -28.51171875 1.0234375 C-19.59455912 -2.59035877 -9.34218751 -0.91723296 0 0 Z M-53.703125 28.82421875 C-70.04650188 49.29268154 -95.57506643 86.0329799 -94.28515625 113.12109375 C-87.46533291 112.33381256 -83.61684853 109.21645159 -78.28515625 105.12109375 C-77.41632813 104.45851563 -76.5475 103.7959375 -75.65234375 103.11328125 C-47.89970255 81.18626736 -32.53602582 50.908849 -16.28515625 20.12109375 C-15.94661621 19.48204102 -15.60807617 18.84298828 -15.25927734 18.18457031 C-13.72236549 15.30464005 -13.72236549 15.30464005 -13.28515625 12.12109375 C-28.76506944 6.96112269 -44.06655792 17.59420357 -53.703125 28.82421875 Z " fill="#DEDAD7" transform="translate(1343.28515625,679.87890625)"/>
<path d="M0 0 C1.15386004 3.26927011 1.17232077 4.63074121 -0.3125 7.8125 C-6.80199487 16.43552743 -17.45248483 23.0004018 -28.0625 24.9375 C-29.031875 24.958125 -30.00125 24.97875 -31 25 C-33 23 -33 23 -33.265625 20.57421875 C-33.26046875 19.62160156 -33.2553125 18.66898438 -33.25 17.6875 C-33.25515625 16.74261719 -33.2603125 15.79773438 -33.265625 14.82421875 C-32.96487216 11.62650846 -32.73620173 9.72766429 -31 7 C-28.25242841 5.71600413 -25.88436235 4.80774659 -23 4 C-21.93604004 3.70150146 -21.93604004 3.70150146 -20.85058594 3.39697266 C-18.69971058 2.82906695 -16.54238689 2.31341585 -14.375 1.8125 C-13.65054687 1.63525391 -12.92609375 1.45800781 -12.1796875 1.27539062 C-8.03481195 0.30299681 -4.28927464 -0.19619711 0 0 Z " fill="#DEDAD7" transform="translate(1263,634)"/>
</svg>
